<svg xmlns="http://www.w3.org/2000/svg" viewBox="0 0 2400 900" role="img" aria-label="Bandeau extraits (sombre)">
  <defs>
    <!-- Dégradé anthracite -> prune -->
    <linearGradient id="bgd" x1="0" y1="0" x2="0" y2="1">
      <stop offset="0%"  stop-color="#2b2f31"/>
      <stop offset="100%" stop-color="#3a4143"/>
    </linearGradient>

    <linearGradient id="dw1" x1="0" y1="0" x2="0" y2="1">
      <stop offset="0%"  stop-color="#FF8FAB" stop-opacity="0.55"/>
      <stop offset="100%" stop-color="#FB6F92" stop-opacity="0.40"/>
    </linearGradient>
    <linearGradient id="dw2" x1="0" y1="0" x2="0" y2="1">
      <stop offset="0%"  stop-color="#FFC2D1" stop-opacity="0.40"/>
      <stop offset="100%" stop-color="#FFB3C6" stop-opacity="0.28"/>
    </linearGradient>

    <filter id="dsoft" x="-20%" y="-20%" width="140%" height="140%">
      <feGaussianBlur stdDeviation="10"/>
    </filter>
    <filter id="dsofter" x="-20%" y="-20%" width="140%" height="140%">
      <feGaussianBlur stdDeviation="6"/>
    </filter>
  </defs>

  <rect width="2400" height="900" fill="url(#bgd)"/>

  <path d="M0,640 C420,600 840,680 1260,640 C1680,600 2040,700 2400,660 L2400,900 L0,900 Z"
        fill="url(#dw1)"/>
  <path d="M0,740 C480,710 960,780 1440,740 C1820,708 2120,790 2400,760 L2400,900 L0,900 Z"
        fill="url(#dw2)" filter="url(#dsoft)"/>

  <g opacity="0.25">
    <circle cx="220" cy="160" r="3" fill="#ffffff"/>
    <circle cx="560" cy="110" r="2.5" fill="#ffffff"/>
    <circle cx="1000" cy="170" r="3" fill="#ffffff"/>
    <circle cx="1380" cy="120" r="2.6" fill="#ffffff"/>
    <circle cx="1740" cy="190" r="3.2" fill="#ffffff"/>
    <circle cx="2100" cy="140" r="2.4" fill="#ffffff"/>
  </g>

  <g fill="#FF8FAB" opacity="0.6" filter="url(#dsofter)">
    <path d="M380 330
             c-25 -28 -70 -22 -88 6
             c-20 32 2 62 88 120
             c86 -58 108 -88 88 -120
             c-18 -28 -63 -34 -88 -6z"/>
    <path d="M1900 260
             c-22 -26 -62 -20 -78 6
             c-18 29 2 55 78 106
             c76 -51 96 -77 78 -106
             c-16 -26 -56 -32 -78 -6z"/>
  </g>

  <g opacity="0.55">
    <path d="M780 280 c-10 -12 -30 -9 -38 4 c-9 15 1 28 38 52 c37 -24 47 -37 38 -52 c-8 -13 -28 -16 -38 -4z" fill="#FB6F92"/>
    <path d="M1600 210 c-8 -10 -24 -8 -30 3 c-7 12 1 22 30 40 c29 -18 37 -28 30 -40 c-6 -11 -22 -13 -30 -3z" fill="#FFC2D1"/>
    <circle cx="1080" cy="240" r="2.6" fill="#ffffff"/>
    <circle cx="1460" cy="180" r="2.8" fill="#ffffff"/>
  </g>
</svg>
