<svg width="2400" height="520" viewBox="0 0 2400 520" xmlns="http://www.w3.org/2000/svg" role="img" aria-label="Bandeau Blog (sombre)">
  <defs>
    <linearGradient id="dg1" x1="0" y1="0" x2="0" y2="1">
      <stop offset="0%" stop-color="#2b2f31"/>
      <stop offset="100%" stop-color="#3a4143"/>
    </linearGradient>
    <linearGradient id="dg2" x1="0" y1="0" x2="1" y2="0">
      <stop offset="0%"  stop-color="#ff8fb1" stop-opacity=".55"/>
      <stop offset="100%" stop-color="#FB6F92" stop-opacity=".45"/>
    </linearGradient>
  </defs>
  <rect width="2400" height="520" fill="url(#dg1)"/>
  <path d="M0,360 C480,330 720,390 1080,360 C1440,330 1800,390 2400,360 L2400,520 L0,520 Z" fill="url(#dg2)"/>
  <path d="M0,430 C420,410 820,450 1240,430 C1660,410 2050,470 2400,450 L2400,520 L0,520 Z" fill="#ff8fb1" opacity=".22"/>
  <g opacity=".45">
    <path d="M210 140c30-50 90-20 70 25c-12 27-35 39-70 64c-35-25-58-37-70-64c-20-45 40-75 70-25z" fill="#FB6F92"/>
    <circle cx="520" cy="120" r="4" fill="#ff8fb1"/><circle cx="540" cy="140" r="2.5" fill="#ff8fb1"/>
    <circle cx="900" cy="110" r="3.5" fill="#A3A380"/><circle cx="1280" cy="150" r="4" fill="#ff8fb1"/>
    <circle cx="1680" cy="130" r="3" fill="#A3A380"/><circle cx="1960" cy="160" r="2.5" fill="#ff8fb1"/>
  </g>
</svg>
