<svg xmlns="http://www.w3.org/2000/svg" viewBox="0 0 2400 900" role="img" aria-label="Bandeau Romans Mo Gadarr">
  <defs>
    <!-- Dégradés -->
    <linearGradient id="bg" x1="0" y1="0" x2="0" y2="1">
      <stop offset="0%" stop-color="#FFE5EC"/>
      <stop offset="100%" stop-color="#FFE5EC"/>
    </linearGradient>
    <linearGradient id="wave" x1="0" y1="0" x2="0" y2="1">
      <stop offset="0%" stop-color="#FFE5EC" stop-opacity="0.45"/>
      <stop offset="100%" stop-color="#FF8FAB" stop-opacity="0.25"/>
    </linearGradient>
    <filter id="blur" x="-20%" y="-20%" width="140%" height="140%">
      <feGaussianBlur stdDeviation="6"/>
    </filter>
  </defs>

  <!-- Fond rosé -->
  <rect width="2400" height="900" fill="url(#bg)"/>

  <!-- Ondes fluides -->
  <path d="M0,620 C400,580 900,670 1400,640 C1900,610 2150,670 2400,640 L2400,900 L0,900 Z"
        fill="url(#wave)" filter="url(#blur)"/>

  <!-- Livres stylisés -->
  <g transform="translate(950,580)" opacity="0.6">
    <rect x="0" y="-30" width="60" height="120" rx="8" fill="#A3A380"/>
    <rect x="70" y="-50" width="60" height="140" rx="8" fill="#B0C4B1"/>
    <rect x="140" y="-40" width="60" height="130" rx="8" fill="#FB6F92"/>
    <rect x="210" y="-20" width="60" height="110" rx="8" fill="#FFB3C6"/>
  </g>

  <!-- Petits cœurs discrets -->
  <g opacity="0.35" fill="#FB6F92">
    <path d="M400 320
             c-10 -12 -30 -9 -38 4
             c-9 15 1 28 38 52
             c37 -24 47 -37 38 -52
             c-8 -13 -28 -16 -38 -4z"/>
    <path d="M1950 270
             c-10 -12 -30 -9 -38 4
             c-9 15 1 28 38 52
             c37 -24 47 -37 38 -52
             c-8 -13 -28 -16 -38 -4z"/>
  </g>

  <!-- Éclats doux -->
  <g opacity="0.15" fill="#ffffff">
    <circle cx="300" cy="140" r="3"/>
    <circle cx="580" cy="90" r="2.5"/>
    <circle cx="980" cy="150" r="3"/>
    <circle cx="1400" cy="110" r="2.8"/>
    <circle cx="1800" cy="160" r="2.6"/>
    <circle cx="2100" cy="120" r="2.4"/>
  </g>
</svg>
