<svg xmlns="http://www.w3.org/2000/svg" viewBox="0 0 2400 900" role="img" aria-label="Bandeau extraits (clair)">
  <defs>
    <!-- Dégradé ciel rosé -->
    <linearGradient id="bg" x1="0" y1="0" x2="0" y2="1">
      <stop offset="0%"  stop-color="#FFE5EC"/>
      <stop offset="100%" stop-color="#FFE5EC"/>
    </linearGradient>

    <!-- Ondes -->
    <linearGradient id="wave1" x1="0" y1="0" x2="0" y2="1">
      <stop offset="0%"  stop-color="#FF8FAB" stop-opacity="0.60"/>
      <stop offset="100%" stop-color="#FB6F92" stop-opacity="0.45"/>
    </linearGradient>
    <linearGradient id="wave2" x1="0" y1="0" x2="0" y2="1">
      <stop offset="0%"  stop-color="#FFC2D1" stop-opacity="0.55"/>
      <stop offset="100%" stop-color="#FFB3C6" stop-opacity="0.35"/>
    </linearGradient>

    <!-- Effets doux -->
    <filter id="soft" x="-20%" y="-20%" width="140%" height="140%">
      <feGaussianBlur stdDeviation="10"/>
    </filter>
    <filter id="softer" x="-20%" y="-20%" width="140%" height="140%">
      <feGaussianBlur stdDeviation="6"/>
    </filter>
  </defs>

  <!-- Fond -->
  <rect width="2400" height="900" fill="url(#bg)"/>

  <!-- Ondes fluides -->
  <path d="M0,620 C400,590 800,660 1200,630 C1600,600 2000,680 2400,650 L2400,900 L0,900 Z"
        fill="url(#wave1)"/>
  <path d="M0,720 C450,690 900,750 1350,720 C1750,695 2100,760 2400,735 L2400,900 L0,900 Z"
        fill="url(#wave2)" filter="url(#soft)"/>

  <!-- Étoiles (petits ronds/éclats) -->
  <g opacity="0.18">
    <circle cx="180" cy="160" r="3" fill="#FFFFFF"/>
    <circle cx="520" cy="110" r="2.5" fill="#FFFFFF"/>
    <circle cx="970" cy="170" r="3" fill="#FFFFFF"/>
    <circle cx="1320" cy="120" r="2.6" fill="#FFFFFF"/>
    <circle cx="1680" cy="190" r="3.2" fill="#FFFFFF"/>
    <circle cx="2050" cy="140" r="2.4" fill="#FFFFFF"/>
  </g>

  <!-- Cœurs minimalistes (style rubans) -->
  <g fill="#FF8FAB" opacity="0.55" filter="url(#softer)">
    <path d="M350 330
             c-25 -28 -70 -22 -88 6
             c-20 32 2 62 88 120
             c86 -58 108 -88 88 -120
             c-18 -28 -63 -34 -88 -6z"/>
    <path d="M1860 260
             c-22 -26 -62 -20 -78 6
             c-18 29 2 55 78 106
             c76 -51 96 -77 78 -106
             c-16 -26 -56 -32 -78 -6z"/>
  </g>

  <!-- Petits cœurs & étoiles dispersés -->
  <g opacity="0.45">
    <path d="M760 280 c-10 -12 -30 -9 -38 4 c-9 15 1 28 38 52 c37 -24 47 -37 38 -52 c-8 -13 -28 -16 -38 -4z" fill="#FB6F92"/>
    <path d="M1560 210 c-8 -10 -24 -8 -30 3 c-7 12 1 22 30 40 c29 -18 37 -28 30 -40 c-6 -11 -22 -13 -30 -3z" fill="#FFC2D1"/>
    <circle cx="1040" cy="240" r="2.6" fill="#FFFFFF"/>
    <circle cx="1420" cy="180" r="2.8" fill="#FFFFFF"/>
  </g>
</svg>
