<svg xmlns="http://www.w3.org/2000/svg" viewBox="0 0 2400 900" role="img" aria-label="Bandeau Romans (dark)">
  <defs>
    <linearGradient id="bgdark" x1="0" y1="0" x2="0" y2="1">
      <stop offset="0%" stop-color="#2b2f31"/>
      <stop offset="100%" stop-color="#2b2f31"/>
    </linearGradient>
    <linearGradient id="wavedark" x1="0" y1="0" x2="0" y2="1">
      <stop offset="0%" stop-color="#FB6F92" stop-opacity="0.4"/>
      <stop offset="100%" stop-color="#FF8FAB" stop-opacity="0.25"/>
    </linearGradient>
    <filter id="blurDark"><feGaussianBlur stdDeviation="6"/></filter>
  </defs>

  <rect width="2400" height="900" fill="url(#bgdark)"/>
  <path d="M0,620 C400,580 900,670 1400,640 C1900,610 2150,670 2400,640 L2400,900 L0,900 Z"
        fill="url(#wavedark)" filter="url(#blurDark)"/>

  <g transform="translate(950,580)" opacity="0.7">
    <rect x="0" y="-30" width="60" height="120" rx="8" fill="#A3A380"/>
    <rect x="70" y="-50" width="60" height="140" rx="8" fill="#B0C4B1"/>
    <rect x="140" y="-40" width="60" height="130" rx="8" fill="#FF8FAB"/>
    <rect x="210" y="-20" width="60" height="110" rx="8" fill="#FFC2D1"/>
  </g>

  <g opacity="0.4" fill="#FF8FAB">
    <path d="M400 320 c-10 -12 -30 -9 -38 4 c-9 15 1 28 38 52 c37 -24 47 -37 38 -52 c-8 -13 -28 -16 -38 -4z"/>
    <path d="M1950 270 c-10 -12 -30 -9 -38 4 c-9 15 1 28 38 52 c37 -24 47 -37 38 -52 c-8 -13 -28 -16 -38 -4z"/>
  </g>
</svg>
