<svg width="2400" height="900" viewBox="0 0 2400 900" xmlns="http://www.w3.org/2000/svg" role="img" aria-label="Bandeau Mogadarr (clair) avec bûche">
  <defs>
    <!-- Départ EXACT navbar light (#F7E1D7) -->
    <linearGradient id="sky" x1="0" y1="0" x2="0" y2="1">
      <stop offset="0%" stop-color="#FFE5EC"/>
      <stop offset="55%" stop-color="#ffe5ec"/>
      <stop offset="100%" stop-color="#FFE5EC"/>
    </linearGradient>
    <linearGradient id="wave1" x1="0" y1="0" x2="0" y2="1">
      <stop offset="0%" stop-color="#FFB3C6" stop-opacity="0.65"/>
      <stop offset="100%" stop-color="#FFE5EC" stop-opacity="0.55"/>
    </linearGradient>
    <linearGradient id="wave2" x1="0" y1="0" x2="0" y2="1">
      <stop offset="0%" stop-color="#FB6F92" stop-opacity="0.55"/>
      <stop offset="100%" stop-color="#FF8FAB" stop-opacity="0.35"/>
    </linearGradient>
    <linearGradient id="logbody" x1="0" y1="0" x2="1" y2="0">
      <stop offset="0%"  stop-color="#FF8FAB"/>
      <stop offset="100%" stop-color="#FB6F92"/>
    </linearGradient>
    <linearGradient id="logring" x1="0" y1="0" x2="1" y2="1">
      <stop offset="0%"  stop-color="#FFD6E1"/>
      <stop offset="100%" stop-color="#FFB3C6"/>
    </linearGradient>
    <filter id="soft" x="-10%" y="-10%" width="120%" height="120%">
      <feGaussianBlur in="SourceGraphic" stdDeviation="8" result="b"/>
      <feBlend in="SourceGraphic" in2="b" mode="normal"/>
    </filter>
  </defs>

  <!-- Ciel -->
  <rect width="2400" height="900" fill="url(#sky)"/>

  <!-- Ondes abstraites -->
  <path d="M0,520 C300,560 600,520 900,560 C1200,600 1500,540 1800,580 C2050,605 2250,590 2400,610 L2400,900 L0,900 Z" fill="url(#wave1)"/>
  <path d="M0,640 C350,620 700,650 1050,630 C1400,610 1750,660 2100,640 C2250,630 2325,645 2400,655 L2400,900 L0,900 Z" fill="url(#wave2)"/>

  <!-- Bûche stylisée (à droite) -->
  <g transform="translate(1280,560)">
    <!-- Corps -->
    <rect x="0" y="-60" rx="28" ry="28" width="760" height="120" fill="url(#logbody)"/>
    <!-- Tranche gauche avec anneaux -->
    <g transform="translate(-18,0)">
      <circle cx="0" cy="0" r="70" fill="url(#logring)" stroke="#FF8FAB" stroke-width="4"/>
      <circle cx="0" cy="0" r="48" fill="none" stroke="#FF8FAB" stroke-opacity="0.6" stroke-width="3"/>
      <circle cx="0" cy="0" r="28" fill="none" stroke="#FF8FAB" stroke-opacity="0.4" stroke-width="2"/>
    </g>
    <!-- Glaçage -->
    <path d="M30,-60 C90,-86 170,-92 240,-72 C300,-54 380,-90 460,-66 C560,-36 650,-88 730,-58 L730,-22 L30,-22 Z" fill="#ffffff" opacity="0.96" filter="url(#soft)"/>
    <!-- Sucre glace -->
    <g opacity="0.8">
      <circle cx="120" cy="-30" r="2.5" fill="#FFFFFF"/>
      <circle cx="190" cy="-36" r="2.5" fill="#FFFFFF"/>
      <circle cx="260" cy="-28" r="2.5" fill="#FFFFFF"/>
      <circle cx="330" cy="-39" r="2.5" fill="#FFFFFF"/>
      <circle cx="400" cy="-31" r="2.5" fill="#FFFFFF"/>
      <circle cx="470" cy="-43" r="2.5" fill="#FFFFFF"/>
      <circle cx="540" cy="-35" r="2.5" fill="#FFFFFF"/>
      <circle cx="610" cy="-41" r="2.5" fill="#FFFFFF"/>
    </g>
    <!-- Houx minimal -->
    <g transform="translate(650,-75)">
      <ellipse cx="0" cy="0" rx="16" ry="10" fill="#FF8FAB"/>
      <ellipse cx="20" cy="-6" rx="14" ry="9" fill="#FB6F92"/>
      <circle cx="10" cy="-20" r="5" fill="#FFB3C6"/>
    </g>
  </g>

  <!-- Flocons discrets -->
  <g opacity="0.18">
    <circle cx="180" cy="140" r="2.5" fill="#ffffff"/>
    <circle cx="520" cy="90"  r="2.2" fill="#ffffff"/>
    <circle cx="970" cy="150" r="2.6" fill="#ffffff"/>
    <circle cx="1320" cy="100" r="2.4" fill="#ffffff"/>
    <circle cx="1680" cy="160" r="2.8" fill="#ffffff"/>
    <circle cx="2050" cy="120" r="2.3" fill="#ffffff"/>
  </g>
</svg>
