<svg width="1200" height="400" viewBox="0 0 1200 400" xmlns="http://www.w3.org/2000/svg" role="img" aria-label="Visuel Salon — Prends de la bûche">
  <defs>
    <linearGradient id="bg" x1="0" y1="0" x2="0" y2="1">
      <stop offset="0%" stop-color="#FFE5EC"/>
      <stop offset="100%" stop-color="#FFC2D1"/>
    </linearGradient>
    <linearGradient id="log" x1="0" y1="0" x2="1" y2="0">
      <stop offset="0%"  stop-color="#FF8FAB"/>
      <stop offset="100%" stop-color="#FB6F92"/>
    </linearGradient>
  </defs>
  <rect width="1200" height="400" rx="24" fill="url(#bg)"/>
  <!-- vague -->
  <path d="M0,260 C260,240 520,280 780,260 C960,248 1090,270 1200,265 L1200,400 L0,400 Z" fill="#FFB3C6" opacity=".35"/>
  <!-- bûche stylisée -->
  <g transform="translate(220,240)">
    <rect x="0" y="-44" width="520" height="88" rx="24" fill="url(#log)"/>
    <g transform="translate(-16,0)">
      <circle cx="0" cy="0" r="56" fill="#FFD6E1" stroke="#FF8FAB" stroke-width="4"/>
      <circle cx="0" cy="0" r="38" fill="none" stroke="#FF8FAB" stroke-opacity=".6" stroke-width="3"/>
      <circle cx="0" cy="0" r="22" fill="none" stroke="#FF8FAB" stroke-opacity=".4" stroke-width="2"/>
    </g>
    <!-- glaçage -->
    <path d="M24,-44 C84,-64 160,-68 220,-52 C300,-36 380,-66 460,-50 L460,-18 L24,-18 Z" fill="#fff" opacity=".95"/>
  </g>
  <!-- étoiles / cœurs -->
  <g opacity=".4">
    <circle cx="980" cy="120" r="4" fill="#A3A380"/>
    <circle cx="1040" cy="150" r="3" fill="#FB6F92"/>
    <path d="M900 140c16-28 48-12 38 12c-6 14-19 21-38 34c-19-13-32-20-38-34c-10-24 22-40 38-12z" fill="#FB6F92"/>
  </g>
</svg>
