<svg width="2400" height="900" viewBox="0 0 2400 900" xmlns="http://www.w3.org/2000/svg" role="img" aria-label="Bandeau Mogadarr (sombre) avec bûche">
  <defs>
    <!-- Départ EXACT navbar dark (#2b2f31) -->
    <linearGradient id="dsky" x1="0" y1="0" x2="0" y2="1">
      <stop offset="0%" stop-color="#2b2f31"/>
      <stop offset="55%" stop-color="#2b2f31"/>
      <stop offset="100%" stop-color="#2b2f31"/>
    </linearGradient>
    <linearGradient id="dwave1" x1="0" y1="0" x2="0" y2="1">
      <stop offset="0%" stop-color="#ff8fb1" stop-opacity="0.40"/>
      <stop offset="100%" stop-color="#ff6f9a" stop-opacity="0.32"/>
    </linearGradient>
    <linearGradient id="dwave2" x1="0" y1="0" x2="0" y2="1">
      <stop offset="0%" stop-color="#ffb3c6" stop-opacity="0.30"/>
      <stop offset="100%" stop-color="#ff8fab" stop-opacity="0.22"/>
    </linearGradient>
    <linearGradient id="dlogbody" x1="0" y1="0" x2="1" y2="0">
      <stop offset="0%"  stop-color="#ff8fb1"/>
      <stop offset="100%" stop-color="#ff6f9a"/>
    </linearGradient>
    <linearGradient id="dlogring" x1="0" y1="0" x2="1" y2="1">
      <stop offset="0%"  stop-color="#ffbfd1"/>
      <stop offset="100%" stop-color="#ff9fba"/>
    </linearGradient>
    <filter id="dsoft" x="-10%" y="-10%" width="120%" height="120%">
      <feGaussianBlur in="SourceGraphic" stdDeviation="8" result="b"/>
      <feBlend in="SourceGraphic" in2="b" mode="normal"/>
    </filter>
  </defs>

  <!-- Ciel -->
  <rect width="2400" height="900" fill="url(#dsky)"/>

  <!-- Ondes -->
  <path d="M0,520 C300,560 600,520 900,560 C1200,600 1500,540 1800,580 C2050,605 2250,590 2400,610 L2400,900 L0,900 Z" fill="url(#dwave1)"/>
  <path d="M0,640 C350,620 700,650 1050,630 C1400,610 1750,660 2100,640 C2250,630 2325,645 2400,655 L2400,900 L0,900 Z" fill="url(#dwave2)"/>

  <!-- Bûche stylisée -->
  <g transform="translate(1280,560)">
    <rect x="0" y="-60" rx="28" ry="28" width="760" height="120" fill="url(#dlogbody)"/>
    <g transform="translate(-18,0)">
      <circle cx="0" cy="0" r="70" fill="url(#dlogring)" stroke="#ff8fb1" stroke-width="4"/>
      <circle cx="0" cy="0" r="48" fill="none" stroke="#ff8fb1" stroke-opacity="0.6" stroke-width="3"/>
      <circle cx="0" cy="0" r="28" fill="none" stroke="#ff8fb1" stroke-opacity="0.4" stroke-width="2"/>
    </g>
    <path d="M30,-60 C90,-86 170,-92 240,-72 C300,-54 380,-90 460,-66 C560,-36 650,-88 730,-58 L730,-22 L30,-22 Z" fill="#ffffff" opacity="0.9" filter="url(#dsoft)"/>
    <g opacity="0.8">
      <circle cx="120" cy="-30" r="2.4" fill="#FFFFFF"/>
      <circle cx="190" cy="-36" r="2.4" fill="#FFFFFF"/>
      <circle cx="260" cy="-28" r="2.4" fill="#FFFFFF"/>
      <circle cx="330" cy="-39" r="2.4" fill="#FFFFFF"/>
      <circle cx="400" cy="-31" r="2.4" fill="#FFFFFF"/>
      <circle cx="470" cy="-43" r="2.4" fill="#FFFFFF"/>
      <circle cx="540" cy="-35" r="2.4" fill="#FFFFFF"/>
      <circle cx="610" cy="-41" r="2.4" fill="#FFFFFF"/>
    </g>
    <g transform="translate(650,-75)">
      <ellipse cx="0" cy="0" rx="16" ry="10" fill="#ff8fb1"/>
      <ellipse cx="20" cy="-6" rx="14" ry="9" fill="#ff6f9a"/>
      <circle cx="10" cy="-20" r="5" fill="#ffb3c6"/>
    </g>
  </g>

  <!-- Points discrets -->
  <g opacity="0.16">
    <circle cx="220" cy="140" r="2.4" fill="#ffffff"/>
    <circle cx="620" cy="90"  r="2.0" fill="#ffffff"/>
    <circle cx="980" cy="160" r="2.4" fill="#ffffff"/>
    <circle cx="1380" cy="110" r="2.2" fill="#ffffff"/>
    <circle cx="1760" cy="170" r="2.6" fill="#ffffff"/>
    <circle cx="2140" cy="130" r="2.2" fill="#ffffff"/>
  </g>
</svg>
